<?xml version="1.0" encoding="UTF-8"?>
<svg width="21px" height="21px" viewBox="0 0 21 21" version="1.1" xmlns="http://www.w3.org/2000/svg" xmlns:xlink="http://www.w3.org/1999/xlink">
    <!-- Generator: sketchtool 64 (101010) - https://sketch.com -->
    <title>16BC2E4E-9CFA-4CEF-97FC-041069A668B8@1.50x</title>
    <desc>Created with sketchtool.</desc>
    <g id="Mobile-Search-Input-Icon-(SPY-1501)" stroke="none" stroke-width="1" fill="none" fill-rule="evenodd">
        <g id="search-typeahead" transform="translate(-274.000000, -248.000000)" fill="#1E8AE7">
            <g id="search-input" transform="translate(16.000000, 230.000000)">
                <g id="icons/16/search/mono" transform="translate(256.000000, 16.000000)">
                    <path d="M22.215,20.415 L17.4,15.6 C20.0482176,12.0902978 19.5787914,7.13946404 16.3181338,4.1900272 C13.0574762,1.24059036 8.08451559,1.26849819 4.85716628,4.25434517 C1.62981697,7.24019216 1.21598595,12.1959827 3.9034278,15.6757416 C6.59086965,19.1555005 11.4903289,20.0078003 15.195,17.64 L20.1,22.5 L22.215,20.415 Z M6.54,14.31 C5.46829242,13.2406796 4.8660123,11.7889364 4.8660123,10.275 C4.8660123,8.76106365 5.46829242,7.30932042 6.54,6.24 C7.60734785,5.16458914 9.05983006,4.55974718 10.575,4.55974718 C12.0901699,4.55974718 13.5426521,5.16458914 14.61,6.24 C16.833705,8.47044017 16.833705,12.0795598 14.61,14.31 C12.3536202,16.4700356 8.79637976,16.4700356 6.54,14.31 L6.54,14.31 Z" id="Shape"></path>
                </g>
            </g>
        </g>
    </g>
</svg>